HIERARCHY
ROOT hip
{
  OFFSET 0 0 0
  CHANNELS 6 Xposition Yposition Zposition Zrotation Yrotation Xrotation
  JOINT abdomen
  {
    OFFSET 0 20.6881 -0.73152
    CHANNELS 3 Zrotation Xrotation Yrotation
    JOINT chest
    {
      OFFSET 0 11.7043 -0.48768
      CHANNELS 3 Zrotation Xrotation Yrotation
      JOINT neck
      {
        OFFSET 0 22.1894 -2.19456
        CHANNELS 3 Zrotation Xrotation Yrotation
        JOINT head
        {
          OFFSET -0.24384 7.07133 1.2192
          CHANNELS 3 Zrotation Xrotation Yrotation
          JOINT leftEye
          {
            OFFSET 4.14528 8.04674 8.04672
            CHANNELS 3 Zrotation Xrotation Yrotation
            End Site
            {
              OFFSET 1 0 0
            }
          }
          JOINT rightEye
          {
            OFFSET -3.6576 8.04674 8.04672
            CHANNELS 3 Zrotation Xrotation Yrotation
            End Site
            {
              OFFSET 1 0 0
            }
          }
        }
      }
      JOINT rCollar
      {
        OFFSET -2.68224 19.2634 -4.8768
        CHANNELS 3 Zrotation Xrotation Yrotation
        JOINT rShldr
        {
          OFFSET -8.77824 -1.95073 1.46304
          CHANNELS 3 Zrotation Xrotation Yrotation
          JOINT rForeArm
          {
            OFFSET -28.1742 -1.7115 0.48768
            CHANNELS 3 Zrotation Xrotation Yrotation
            JOINT rHand
            {
              OFFSET -22.5879 0.773209 7.07136
              CHANNELS 3 Zrotation Xrotation Yrotation
              JOINT rThumb1
              {
                OFFSET -1.2192 -0.487915 3.41376
                CHANNELS 3 Zrotation Xrotation Yrotation
                JOINT rThumb2
                {
                  OFFSET -3.37035 -0.52449 3.41376
                  CHANNELS 3 Zrotation Xrotation Yrotation
                  End Site
                  {
                    OFFSET -1.78271 -1.18214 1.43049
                  }
                }
              }
              JOINT rIndex1
              {
                OFFSET -7.75947 0.938293 5.60832
                CHANNELS 3 Zrotation Xrotation Yrotation
                JOINT rIndex2
                {
                  OFFSET -2.54057 -0.884171 1.56538
                  CHANNELS 3 Zrotation Xrotation Yrotation
                  End Site
                  {
                    OFFSET -1.62519 -0.234802 1.16502
                  }
                }
              }
              JOINT rMid1
              {
                OFFSET -8.24714 1.18213 3.41376
                CHANNELS 3 Zrotation Xrotation Yrotation
                JOINT rMid2
                {
                  OFFSET -3.10165 -0.590103 1.0647
                  CHANNELS 3 Zrotation Xrotation Yrotation
                  End Site
                  {
                    OFFSET -2.48547 -0.328903 0.83742
                  }
                }
              }
              JOINT rRing1
              {
                OFFSET -8.82822 0.546677 1.51678
                CHANNELS 3 Zrotation Xrotation Yrotation
                JOINT rRing2
                {
                  OFFSET -2.60934 -0.819778 -0.0198488
                  CHANNELS 3 Zrotation Xrotation Yrotation
                  End Site
                  {
                    OFFSET -2.33842 -0.294052 0.168128
                  }
                }
              }
              JOINT rPinky1
              {
                OFFSET -8.27202 -0.0477905 -0.4584
                CHANNELS 3 Zrotation Xrotation Yrotation
                JOINT rPinky2
                {
                  OFFSET -1.82734 -0.647385 -0.700984
                  CHANNELS 3 Zrotation Xrotation Yrotation
                  End Site
                  {
                    OFFSET -1.69225 -0.51767 -0.607171
                  }
                }
              }
            }
          }
        }
      }
      JOINT lCollar
      {
        OFFSET 2.68224 19.2634 -4.8768
        CHANNELS 3 Zrotation Xrotation Yrotation
        JOINT lShldr
        {
          OFFSET 8.77824 -1.95073 1.46304
          CHANNELS 3 Zrotation Xrotation Yrotation
          JOINT lForeArm
          {
            OFFSET 28.1742 -1.7115 0.48768
            CHANNELS 3 Zrotation Xrotation Yrotation
            JOINT lHand
            {
              OFFSET 22.5879 0.773209 7.07136
              CHANNELS 3 Zrotation Xrotation Yrotation
              JOINT lThumb1
              {
                OFFSET 1.2192 -0.487915 3.41376
                CHANNELS 3 Zrotation Xrotation Yrotation
                JOINT lThumb2
                {
                  OFFSET 3.37035 -0.52449 3.41376
                  CHANNELS 3 Zrotation Xrotation Yrotation
                  End Site
                  {
                    OFFSET 1.78271 -1.18214 1.43049
                  }
                }
              }
              JOINT lIndex1
              {
                OFFSET 7.75947 0.938293 5.60832
                CHANNELS 3 Zrotation Xrotation Yrotation
                JOINT lIndex2
                {
                  OFFSET 2.54057 -0.884171 1.56538
                  CHANNELS 3 Zrotation Xrotation Yrotation
                  End Site
                  {
                    OFFSET 1.62519 -0.234802 1.16502
                  }
                }
              }
              JOINT lMid1
              {
                OFFSET 8.24714 1.18213 3.41376
                CHANNELS 3 Zrotation Xrotation Yrotation
                JOINT lMid2
                {
                  OFFSET 3.10165 -0.590103 1.0647
                  CHANNELS 3 Zrotation Xrotation Yrotation
                  End Site
                  {
                    OFFSET 2.48547 -0.328903 0.83742
                  }
                }
              }
              JOINT lRing1
              {
                OFFSET 8.82822 0.546677 1.51678
                CHANNELS 3 Zrotation Xrotation Yrotation
                JOINT lRing2
                {
                  OFFSET 2.60934 -0.819778 -0.0198488
                  CHANNELS 3 Zrotation Xrotation Yrotation
                  End Site
                  {
                    OFFSET 2.33842 -0.294052 0.168128
                  }
                }
              }
              JOINT lPinky1
              {
                OFFSET 8.27202 -0.0477905 -0.4584
                CHANNELS 3 Zrotation Xrotation Yrotation
                JOINT lPinky2
                {
                  OFFSET 1.82734 -0.647385 -0.700984
                  CHANNELS 3 Zrotation Xrotation Yrotation
                  End Site
                  {
                    OFFSET 1.69225 -0.51767 -0.607171
                  }
                }
              }
            }
          }
        }
      }
    }
  }
  JOINT rButtock
  {
    OFFSET -8.77824 4.35084 1.2192
    CHANNELS 3 Zrotation Xrotation Yrotation
    JOINT rThigh
    {
      OFFSET 0 -1.70687 -2.19456
      CHANNELS 3 Zrotation Xrotation Yrotation
      JOINT rShin
      {
        OFFSET 0 -36.8199 0.73152
        CHANNELS 3 Zrotation Xrotation Yrotation
        JOINT rFoot
        {
          OFFSET 0.73152 -45.1104 -5.12064
          CHANNELS 3 Zrotation Xrotation Yrotation
          End Site
          {
            OFFSET -1.1221 -3.69964 12.103
          }
        }
      }
    }
  }
  JOINT lButtock
  {
    OFFSET 8.77824 4.35084 1.2192
    CHANNELS 3 Zrotation Xrotation Yrotation
    JOINT lThigh
    {
      OFFSET 0 -1.70687 -2.19456
      CHANNELS 3 Zrotation Xrotation Yrotation
      JOINT lShin
      {
        OFFSET 0 -36.8199 0.73152
        CHANNELS 3 Zrotation Xrotation Yrotation
        JOINT lFoot
        {
          OFFSET -0.73152 -45.1104 -5.12064
          CHANNELS 3 Zrotation Xrotation Yrotation
          End Site
          {
            OFFSET 1.1221 -3.69964 12.103
          }
        }
      }
    }
  }
}
MOTION
Frames:	5
Frame Time:	0.03333
0.0 0.0 0.0 0.0 0.0 0.0 0.0 0.0 0.0 0.0 0.0 0.0 0.0 0.0 0.0 0.0 0.0 0.0 0.0 0.0 0.0 0.0 0.0 0.0 0.0 0.0 0.0 0.0 0.0 0.0 0.0 0.0 0.0 0.0 0.0 0.0 0.0 0.0 0.0 0.0 0.0 0.0 0.0 0.0 0.0 0.0 0.0 0.0 0.0 0.0 0.0 0.0 0.0 0.0 0.0 0.0 0.0 0.0 0.0 0.0 0.0 0.0 0.0 0.0 0.0 0.0 0.0 0.0 0.0 0.0 0.0 0.0 0.0 0.0 0.0 0.0 0.0 0.0 0.0 0.0 0.0 0.0 0.0 0.0 0.0 0.0 0.0 0.0 0.0 0.0 0.0 0.0 0.0 0.0 0.0 0.0 0.0 0.0 0.0 0.0 0.0 0.0 0.0 0.0 0.0 0.0 0.0 0.0 0.0 0.0 0.0 0.0 0.0 0.0 0.0 0.0 0.0 0.0 0.0 0.0 0.0 0.0 0.0 0.0 0.0 0.0 0.0 0.0 0.0 0.0 0.0 0.0
0.0098 11.1036 0.0611 0.285084 48.893764 -0.933624 -1.694152 3.110914 32.478875 5.698565 9.10356 -28.679472 9.644732 -8.633552 119.026644 105.58616 64.110216 161.105094 -1.617342 -0.027181 1.925547 -2.366091 -0.044704 2.164462 -100.466287 2.170552 -21.48888 14.56387 1.304752 -172.406231 -27.971461 60.236976 -170.911759 149.545845 -28.43954 -16.524507 -14.832715 -59.630165 -63.520376 -173.106968 -33.085872 106.427921 -16.493003 63.779689 -14.214001 -165.239137 -24.405946 116.043657 -10.892722 -24.499412 -35.046393 -30.978085 57.230798 28.313431 -88.928099 -66.7059 -95.268032 -162.205417 -13.980685 177.640148 -11.805097 6.711634 18.18615 -154.945258 30.959232 -140.739361 -87.154564 -76.163942 6.323912 165.323322 -13.627994 -172.785758 173.807971 68.965279 6.661822 172.586385 30.356415 16.650913 4.912506 2.978196 31.732019 -89.125735 -74.891488 -50.243253 172.687439 -11.859753 -139.580539 -2.951689 3.684964 3.553645 43.625076 55.911197 -15.167746 160.81517 -5.894318 -136.556284 100.955107 -85.184751 96.492641 -8.93052 0.000636 6.001509 36.235796 32.406781 -50.018076 171.726774 71.456778 140.191917 -62.610946 -3.759745 -84.050517 6.847143 64.786585 -6.142255 -7.423599 -3.403828 -74.00771 71.42307 -25.205939 -97.918528 62.375185 12.394401 88.541251 -16.192332 64.469245 14.545141 -6.227067 -2.357222 -104.36884 91.175181 -21.704796 72.083019
0.5887 22.670299999999997 0.3959 -165.612099 80.67259 -156.950849 -6.334438 19.423997 -0.0 15.88673 -34.808052 9.275891 -42.642251 43.443555 -57.159072 22.589328 1.059814 40.817186 -59.157555 -9.025612 15.833094 -64.647445 -6.271974 9.897418 12.547001 -13.712217 -7.470798 -92.227226 -87.26126 -150.778749 167.898007 64.611122 -75.297428 10.800514 20.323098 -14.23546 21.530442 13.106473 -18.04766 17.286636 3.154749 1.481619 -6.19037 63.120638 4.613831 154.167593 -36.56694 -6.911426 117.615807 66.175319 -40.406972 7.713143 48.783812 -100.826926 59.899093 79.969575 -0.255947 59.623909 -3.502958 37.760632 32.44984 2.476358 -56.071684 -100.495979 0.017221 -155.448751 -51.899322 9.724012 17.784299 54.216815 64.645626 -116.864684 -79.160538 58.127457 -102.621783 177.474826 59.879745 -138.610815 -31.995458 -40.315934 23.453006 113.174246 55.718192 -112.766634 -11.61851 -34.460788 102.748705 -32.903314 52.784963 -45.461469 35.231139 -14.524221 167.807418 -15.19414 -15.741861 -4.430255 91.285324 -11.523553 139.830329 -147.970901 -3.147085 170.45007 157.810327 59.906747 49.477771 -42.263643 19.127348 28.507637 -15.879949 -2.034535 20.860447 56.654147 -51.721686 -117.318867 -76.659748 -30.403985 -168.675244 -126.855436 -15.875534 -171.963836 59.979286 11.160451 24.899574 -114.272691 -6.597176 -107.964533 -85.86721 16.093739 171.518809 -120.630535 2.373493 -42.230718
0.9317000000000001 23.5871 0.6734 -49.559842 83.359795 -45.978562 -7.931158 34.107266 -0.0 12.140601 -46.876025 28.645551 179.342729 31.16017 131.802935 116.703078 -46.289817 69.887268 -64.802437 2.456425 -3.869646 -48.315058 7.614248 -16.878025 -139.55728 53.318888 -171.947469 -172.16547 40.473795 125.815754 -71.648521 26.107057 -165.741825 63.639457 -42.351064 27.426546 126.07916 -89.339214 11.395452 -141.22209 -18.318581 45.066423 51.773044 0.989338 -55.407821 -88.114217 -72.505102 179.923437 -79.770093 21.851695 -169.631724 -17.090439 -53.49943 -112.319584 -29.3665 -4.397539 -125.020114 -125.485124 -3.205913 170.518982 16.833333 15.602127 -39.272435 61.047195 -5.164711 18.85142 -22.416323 61.859278 -20.119608 -61.129652 -18.627029 -48.634092 -138.966579 39.283841 -2.493864 -29.541543 32.769511 77.872478 -133.866054 -84.642502 -66.286011 147.876114 -19.515287 -76.762989 -25.448638 -21.417812 55.369196 -0.517221 -10.264589 -13.304896 6.186465 -33.427865 89.696795 92.014293 16.192037 -77.689043 -70.864556 77.155399 24.984667 -109.857624 52.399773 65.638651 -101.699415 39.599999 45.390077 -6.073637 16.800172 60.219728 26.528376 24.484432 39.632995 -28.838257 -49.560094 -23.112215 10.653121 75.715218 -124.437327 -87.448157 -69.10268 -18.258677 65.585954 19.24995 27.463872 -114.860747 -14.984537 -67.582685 -89.951822 57.891901 171.847584 -79.131367 -17.306297 -48.385034
1.0711 26.299 1.4042000000000001 -14.472666 66.274279 -14.578406 -7.841532 33.8573 -26.098776 27.22163 -35.619891 61.936921 -173.75947 25.496183 107.267628 72.518896 -15.977237 70.693124 -17.792149 10.143487 -59.106757 -20.134614 13.048617 -65.577038 55.899795 57.18572 -20.696691 -117.167252 10.782153 116.2665 -12.51228 34.211061 -130.637882 154.540049 -4.499831 103.055257 118.08534 67.581574 -87.877579 146.922887 -45.238788 175.163779 -97.913792 7.750151 148.289878 105.138528 -0.011797 72.448432 -88.999915 17.094578 -158.20729 -129.635746 25.76093 -150.402426 -64.526583 24.191077 -159.80344 13.809453 31.701976 44.154734 -13.384609 54.247152 -21.902706 -56.220791 -5.517847 -161.94513 120.79759 -4.065813 -165.257523 -145.832157 23.855761 -176.50927 -131.439904 20.978532 4.216169 -63.784676 29.663325 121.762062 9.393663 1.513015 8.342395 132.762548 -9.120301 -107.796036 61.246465 59.542818 -68.33166 -9.342357 12.921789 6.537624 -65.47165 -79.025636 2.116626 -60.77853 -47.766192 -60.141628 105.374159 24.597692 -144.906302 -157.674764 52.932138 36.89297 5.637864 -14.67944 -59.658066 141.083541 26.71937 101.221148 137.309119 75.624473 -0.0 -111.263653 -2.478373 89.035925 61.425671 -47.243675 176.118374 67.926531 -39.388645 52.524904 -32.458873 16.249204 -36.551004 60.630177 -50.671562 66.475412 65.538043 79.099933 -101.933346 -170.475484 54.561579 -46.491751
